PathFileType	4	(X/Y/Z)	D:\Share\Shared_Data\Ergonomics\Sit To Stand Pertubation\S1\Perturbed_NoHarness.trc
DataRate	CameraRate	NumFrames	NumMarkers	Units	OrigDataRate	OrigDataStartFrame	OrigNumFrames	
100	100	19	18	m	100	8488	221
Frame#	Time	L_ASIS			R_ASIS			R_Pelvis			V_Sacral			L_Pelvis			Clavical			R_Acromium			L_Acromium			Sternum			Torso			R_Thigh_Med			R_Thigh_Lat			R_Thigh			R_Shank_Med			R_Shank_Lat			R_Shank			R_Heel			R_Toe			
		X1	Y1	Z1	X2	Y2	Z2	X3	Y3	Z3	X4	Y4	Z4	X5	Y5	Z5	X6	Y6	Z6	X7	Y7	Z7	X8	Y8	Z8	X9	Y9	Z9	X10	Y10	Z10	X11	Y11	Z11	X12	Y12	Z12	X13	Y13	Z13	X14	Y14	Z14	X15	Y15	Z15	X16	Y16	Z16	X17	Y17	Z17	X18	Y18	Z18	

8488	84.87	0.026391018	0.6470332	-0.09761367	-0.073231026	0.62910303	0.13094812	0.01081077	0.63387427	0.10747895	-0.17189694	0.57377954	0.0053199801	-0.067479919	0.63163177	-0.14008594	0.063736214	0.95395758	-0.00088323551	0.014827836	1.0333611	0.14729535	-0.034378357	0.99651105	-0.19809198	0.052397663	0.96948022	0.10054155	0.06196138	0.95684595	-0.061641373	0.30358932	0.41557645	0.041484486	0.29830545	0.43697549	0.16166528	0.16809689	0.55243756	0.10983802	0.33845221	0.096491341	0.10115433	0.31175705	0.098542648	0.1783985	0.30101263	0.31147104	0.1845858	0.27155157	0.042901474	0.1319727	0.47548502	0.054445267	0.13955318
8489	84.88	0.026881105	0.64667096	-0.097569382	-0.072979744	0.62912	0.13094205	0.011021724	0.63332416	0.1071161	-0.17177644	0.5739375	0.0053084221	-0.067119049	0.63172357	-0.14001752	0.067957649	0.95259906	-0.00070972306	0.020102552	1.0326632	0.14745157	-0.029525606	0.99639642	-0.19788181	0.056744671	0.96826031	0.10070084	0.066368515	0.95551855	-0.061459049	0.30352142	0.41562787	0.041589821	0.29824261	0.43697897	0.16179137	0.1680211	0.55243152	0.11000003	0.33840112	0.096512428	0.1010901	0.31172928	0.098519119	0.17833226	0.30095898	0.31144522	0.18464154	0.27154718	0.042890358	0.13194675	0.4754729	0.05449992	0.13953772
8490	84.89	0.027438318	0.64627637	-0.097513222	-0.072680344	0.62915186	0.13093979	0.011287312	0.63275	0.10675419	-0.17163029	0.57412256	0.0052933102	-0.066698532	0.63182745	-0.13994695	0.072436951	0.9511189	-0.00050837493	0.025678841	1.0318765	0.14763377	-0.024378626	0.99622137	-0.19760913	0.061338871	0.96694019	0.10088689	0.071046799	0.95410864	-0.061222305	0.3034635	0.41567706	0.04169315	0.29819022	0.43698108	0.16191759	0.16796184	0.55241681	0.11015742	0.33835519	0.096534935	0.10102902	0.31170215	0.09849633	0.17826875	0.30091483	0.3114198	0.18470114	0.27154352	0.042878819	0.13192329	0.47546194	0.054539577	0.13952071
8491	84.9	0.028060061	0.64584827	-0.097446304	-0.072334259	0.62920203	0.13094362	0.011611082	0.63216254	0.10640921	-0.17146046	0.57433374	0.0052749915	-0.066220413	0.63194348	-0.1398746	0.077183037	0.94950128	-0.00027787748	0.031569075	1.0309907	0.14784105	-0.018924658	0.99597791	-0.19726584	0.066189377	0.96551086	0.10110028	0.076003555	0.95261072	-0.060926414	0.30341367	0.41572339	0.041792847	0.29814645	0.43698145	0.1620423	0.16791855	0.55239502	0.11030958	0.3383136	0.096558014	0.10097149	0.31167542	0.098474457	0.17820824	0.30087866	0.31139438	0.18476385	0.27154016	0.042866787	0.13190254	0.4754527	0.054556828	0.13950041
8492	84.91	0.028743513	0.64538544	-0.097369576	-0.071942726	0.62927448	0.13095663	0.011995836	0.6315708	0.1060955	-0.17126912	0.57457025	0.0052540579	-0.06568692	0.63207153	-0.13980063	0.082204659	0.94773035	-1.7232984e-05	0.037785629	1.0299957	0.14807158	-0.013150517	0.99565765	-0.19684532	0.071305695	0.96396301	0.10134098	0.081245514	0.95101874	-0.06056749	0.30336942	0.41576605	0.041887569	0.29810913	0.43697952	0.16216406	0.16789011	0.55236804	0.11045666	0.33827521	0.096580666	0.10091798	0.31164841	0.098453392	0.17815105	0.30084875	0.31136841	0.18482867	0.27153653	0.042854019	0.13188474	0.47544559	0.054543621	0.13947505
8493	84.92	0.029486135	0.64488599	-0.097283607	-0.071506317	0.62937433	0.13098288	0.012443711	0.63098193	0.10582495	-0.17105821	0.57483197	0.0052313399	-0.065099861	0.63221204	-0.13972458	0.087510078	0.94579132	0.00027419892	0.044340454	1.0288795	0.14832272	-0.0070429153	0.9952522	-0.19634332	0.076697296	0.96228735	0.10160834	0.086778732	0.94932587	-0.060142918	0.30332776	0.41580453	0.041976387	0.29807556	0.43697479	0.16228148	0.16787495	0.55233752	0.11059979	0.33823825	0.096601891	0.10086913	0.31161996	0.098432884	0.17809772	0.30082263	0.31134122	0.18489479	0.2715318	0.042840046	0.1318701	0.47544101	0.054491806	0.13944284
8494	84.93	0.030286283	0.64434729	-0.097188583	-0.071024399	0.6295069	0.13102707	0.012956437	0.63040015	0.10560622	-0.17082915	0.57511981	0.0052078772	-0.06446006	0.63236548	-0.13964571	0.093106873	0.94367053	0.00059666413	0.051244511	1.0276309	0.14859103	-0.00058884841	0.99475226	-0.19575873	0.082373177	0.9604743	0.10190096	0.092608521	0.94752448	-0.059651737	0.30328552	0.41583826	0.042058853	0.29804279	0.43696658	0.16239355	0.16787131	0.55230493	0.1107411	0.33820074	0.096620644	0.1008258	0.31158859	0.09841243	0.17804904	0.300798	0.31131229	0.18496149	0.27152478	0.042824154	0.13185905	0.47543896	0.054393845	0.13940234
8495	84.94	0.031143879	0.64376648	-0.097084206	-0.070494553	0.62967834	0.13109471	0.013535751	0.62982715	0.10544465	-0.17058208	0.57543634	0.0051848631	-0.063766636	0.63253223	-0.13956264	0.099001488	0.94135645	0.00094997376	0.058507202	1.0262366	0.14887227	0.0062239041	0.99414856	-0.1950943	0.088341278	0.95851447	0.10221669	0.09873925	0.94560571	-0.059094975	0.30323914	0.4158671	0.042135117	0.29800812	0.43695428	0.16249953	0.16787743	0.55227142	0.11088375	0.33816055	0.096636024	0.10078905	0.31155212	0.09839151	0.17800598	0.30077234	0.31128113	0.18502837	0.27151431	0.042805367	0.13185207	0.47543936	0.054243687	0.13935254
8496	84.95	0.032061089	0.64313934	-0.096969627	-0.069912086	0.62989526	0.1311913	0.014183946	0.62926166	0.10534216	-0.17031534	0.57578619	0.0051635704	-0.063016312	0.6327132	-0.13947354	0.10519897	0.93884033	0.0013334532	0.066135719	1.0246846	0.14916145	0.013406234	0.9934317	-0.19435699	0.094607941	0.95639844	0.10255257	0.10517429	0.94355939	-0.058475922	0.30318549	0.41589111	0.042205986	0.29796918	0.43693732	0.16259911	0.16789182	0.5522384	0.11103183	0.33811505	0.096647339	0.10076014	0.31150824	0.098369484	0.17796979	0.30074362	0.31124722	0.1850954	0.27149887	0.042782471	0.13184976	0.47544177	0.054037739	0.13929321
8497	84.96	0.033042973	0.64246106	-0.096843536	-0.069269424	0.630164	0.13132202	0.014904496	0.6287002	0.10529781	-0.1700249	0.57617603	0.0051452346	-0.062202709	0.63290942	-0.13937605	0.1117027	0.93611646	0.0017458797	0.074134468	1.0229623	0.14945303	0.020967117	0.99259216	-0.19355809	0.1011774	0.95411707	0.10290501	0.11191571	0.94137451	-0.057800186	0.30312167	0.4159108	0.042272987	0.29792435	0.43691528	0.16269241	0.16791364	0.55220703	0.11119016	0.33806192	0.096654106	0.10074055	0.31145404	0.098345818	0.17794189	0.30071017	0.31121048	0.1851631	0.27147675	0.042754047	0.13185298	0.4754454	0.053775715	0.13922508
8498	84.97	0.034098019	0.64172589	-0.096704102	-0.068555931	0.63049023	0.13149089	0.01570268	0.6281369	0.1053082	-0.16970361	0.57661566	0.0051309314	-0.061315853	0.63312177	-0.13926741	0.11851412	0.93318268	0.0021854086	0.082504478	1.0210583	0.149741	0.028913013	0.99162073	-0.19271295	0.1080514	0.95166138	0.10326976	0.11896418	0.93903888	-0.0570755	0.30304556	0.41592722	0.042338394	0.29787283	0.43688779	0.16278024	0.16794313	0.55217871	0.11136395	0.33799878	0.096656242	0.10073186	0.31138663	0.098320053	0.17792398	0.30067126	0.31117096	0.18523241	0.27144635	0.042718544	0.13186263	0.47544891	0.05346143	0.13915004
8499	84.98	0.03523851	0.64092749	-0.096549194	-0.067757561	0.63087872	0.1317	0.016586124	0.62756464	0.10536835	-0.16934097	0.57711737	0.0051214256	-0.060341702	0.63335175	-0.13914455	0.12563274	0.93003986	0.0026495006	0.091242966	1.0189619	0.15001917	0.037247311	0.99050897	-0.19184012	0.1152289	0.94902313	0.10364223	0.12631865	0.93653973	-0.056311359	0.30295602	0.41594171	0.042405193	0.29781528	0.43685477	0.16286395	0.16798195	0.5521554	0.11155856	0.33792349	0.096653961	0.10073573	0.31130301	0.098291908	0.1779178	0.30062704	0.31112897	0.1853049	0.27140594	0.042674362	0.13187978	0.47545071	0.05310318	0.13907129
8500	84.99	0.036480663	0.6400592	-0.096376465	-0.066857025	0.63133295	0.13194887	0.017565186	0.62697571	0.10547234	-0.16892255	0.57769647	0.005117013	-0.059262039	0.63360077	-0.13900407	0.13305608	0.92669238	0.0031348684	0.10034306	1.0166641	0.1502814	0.045969818	0.98924939	-0.19096028	0.12270604	0.94619501	0.10401752	0.13397617	0.9338645	-0.055518391	0.30285324	0.41595615	0.042477081	0.29775363	0.43681635	0.16294565	0.16803357	0.55213965	0.11177885	0.33783472	0.09664785	0.10075378	0.31120065	0.09826133	0.17792526	0.30057919	0.31108517	0.18538264	0.27135403	0.042619987	0.13190556	0.47544891	0.052713749	0.13899323
8501	85	0.037844406	0.63911456	-0.096183693	-0.065834015	0.63185413	0.13223392	0.018653055	0.62636279	0.10561395	-0.16843008	0.57837042	0.0051173615	-0.058054558	0.63387073	-0.13884262	0.14077975	0.92314661	0.0036374631	0.10979362	1.0141579	0.15052168	0.055076344	0.98783606	-0.19009492	0.1304761	0.94317102	0.10439074	0.14193138	0.93100134	-0.054707615	0.30273917	0.41597275	0.042558353	0.29769171	0.43677277	0.16302795	0.16810359	0.55213507	0.11202893	0.33773154	0.09663884	0.10078746	0.31107742	0.098228409	0.17794812	0.30053052	0.3110405	0.1854682	0.27128949	0.04255415	0.13194115	0.47544128	0.052309887	0.13892137
8502	85.01	0.039352913	0.63808765	-0.095969177	-0.064665733	0.63244196	0.13254813	0.01986565	0.62571979	0.10578717	-0.16784172	0.57915881	0.0051213608	-0.05669331	0.63416357	-0.13865688	0.14879774	0.91941113	0.0041525264	0.11957935	1.0114387	0.15073445	0.064558395	0.98626483	-0.18926459	0.13852969	0.93994708	0.10475706	0.15017654	0.92794025	-0.053889641	0.30261792	0.41599402	0.042653751	0.29763498	0.43672458	0.16311432	0.16819989	0.55214606	0.11231167	0.33761429	0.096628098	0.10083797	0.31093216	0.098193481	0.17798807	0.30048575	0.31099612	0.18556442	0.27121158	0.042475975	0.13198761	0.47542572	0.051911278	0.13886198
8503	85.02	0.041031738	0.63697412	-0.095732132	-0.063327744	0.63309406	0.13288113	0.021221119	0.62504205	0.10598656	-0.16713228	0.58008215	0.005127008	-0.055149433	0.63448175	-0.13844376	0.15710249	0.91549548	0.0046747255	0.12968097	1.0085049	0.15091472	0.074402985	0.98453387	-0.18848741	0.14685487	0.93652155	0.10511199	0.15870087	0.92467352	-0.053073906	0.30249591	0.41602252	0.042768303	0.29759113	0.43667249	0.16320866	0.16833295	0.55217847	0.11262832	0.33748422	0.096616943	0.10090612	0.31076501	0.098156937	0.17804648	0.30045126	0.31095337	0.18567453	0.27112015	0.042385166	0.13204601	0.47540018	0.051539085	0.13882175
8504	85.03	0.042907635	0.63577179	-0.095473343	-0.061794922	0.6338067	0.13321983	0.02273912	0.62432782	0.10620732	-0.16627425	0.58116107	0.0051313214	-0.053392254	0.63482776	-0.13820068	0.16568497	0.91140991	0.0051983743	0.14007549	1.0053577	0.15105809	0.084592537	0.98264398	-0.18777765	0.15543752	0.93289551	0.10545141	0.16749055	0.92119678	-0.052268135	0.30238232	0.41606076	0.042907093	0.29756955	0.43661725	0.16331532	0.16851559	0.5522384	0.11297838	0.33734399	0.096606743	0.10099213	0.31057736	0.098119263	0.17812444	0.30043515	0.31091373	0.18580173	0.27101584	0.042282112	0.1321171	0.47536313	0.051214207	0.13880713
8505	85.04	0.04500713	0.63448138	-0.095195747	-0.060042709	0.63457513	0.13354897	0.024439846	0.62357776	0.10644537	-0.16523878	0.58241455	0.0051303258	-0.05139061	0.63520441	-0.13792578	0.17453471	0.90716467	0.0057177215	0.15073666	1.0020026	0.15116098	0.095104843	0.98059863	-0.18714465	0.16426118	0.92907379	0.10577161	0.17652841	0.9175097	-0.051477974	0.30228928	0.41611099	0.043074951	0.29758182	0.43655975	0.16343904	0.16876299	0.55233319	0.11335953	0.33719745	0.096598778	0.10109573	0.31037231	0.098080963	0.17822246	0.30044736	0.31087833	0.1859491	0.27090002	0.042167995	0.13220142	0.47531363	0.050955505	0.13882396
8506	85.05	0.047354862	0.63310693	-0.094905075	-0.058048355	0.6353941	0.13385233	0.026342869	0.62279541	0.10669719	-0.16399695	0.58385876	0.0051191111	-0.049114422	0.63561462	-0.13761798	0.18363942	0.90277063	0.006227283	0.16163524	0.99844769	0.1512205	0.10591312	0.97840411	-0.1865921	0.17330742	0.925065	0.1060695	0.18579372	0.91361646	-0.050706902	0.30223209	0.41617496	0.043276196	0.29764136	0.43650079	0.16358446	0.16909229	0.55246954	0.11376774	0.33704984	0.096594055	0.1012159	0.31015451	0.098042419	0.17834056	0.30049924	0.31084845	0.1861194	0.27077481	0.042044815	0.13229919	0.47525159	0.050778244	0.13887683
